<svg width="26" height="25" viewBox="0 0 26 25" fill="none" xmlns="http://www.w3.org/2000/svg">
<path d="M10.7969 1.89453L0.746094 16.707L0 17.8057H2.10059L1.4082 18.8203L0.657227 19.9209H8.03711L10.8711 22.8779L12.083 24.1426V0L10.7969 1.89453ZM10.6748 20.6387L8.8457 18.7295L8.6377 18.5127H3.32129L10.6748 7.74121V20.6387Z" fill="#AEAEAE"/>
<path d="M14.9558 1.89453L25.0066 16.707L25.7527 17.8057H23.6521L24.3445 18.8203L25.0955 19.9209H17.7156L14.8816 22.8779L13.6697 24.1426V0L14.9558 1.89453ZM15.0779 20.6387L16.907 18.7295L17.115 18.5127H22.4314L15.0779 7.74121V20.6387Z" fill="#AEAEAE"/>
</svg>
