<svg width="114" height="28" viewBox="0 0 114 28" fill="none" xmlns="http://www.w3.org/2000/svg">
<path d="M106.514 0.942383L101.519 8.30469L101.148 8.85059H102.192L101.847 9.35547L101.474 9.90332H105.142L106.552 11.373L107.153 12.001V8.50098H107.154V0L106.514 0.942383ZM106.454 10.2598L105.545 9.31152L105.441 9.20312H102.799L106.454 3.84863V10.2598Z" fill="#727272"/>
<path d="M108.583 0.942383L113.578 8.30469L113.949 8.85059H112.904L113.249 9.35547L113.622 9.90332H109.954L108.544 11.373L107.943 12.001V0L108.583 0.942383ZM108.643 8.50098H108.642V10.2598L109.551 9.31152L109.655 9.20312H112.297L108.643 3.84961V8.50098Z" fill="#727272"/>
<path d="M6.98281 7.91306L12.1458 21.2226C12.3574 21.7586 12.5972 22.1183 12.8652 22.3017C13.1333 22.471 13.3801 22.5627 13.6058 22.5768V23C13.3237 22.9718 12.9781 22.9577 12.569 22.9577C12.1599 22.9436 11.7508 22.9365 11.3417 22.9365C10.7916 22.9365 10.2767 22.9436 9.79707 22.9577C9.31744 22.9577 8.92951 22.9718 8.63328 23V22.5768C9.35271 22.5486 9.81117 22.4287 10.0087 22.2171C10.2062 21.9914 10.1638 21.5188 9.8817 20.7994L5.94598 10.283L6.28454 10.0079L2.60273 19.5721C2.37703 20.1364 2.24301 20.616 2.20069 21.011C2.15837 21.3919 2.19364 21.6951 2.30649 21.9208C2.43345 22.1466 2.638 22.3088 2.92013 22.4075C3.21637 22.5063 3.58314 22.5627 4.02044 22.5768V23C3.62545 22.9718 3.20931 22.9577 2.77201 22.9577C2.34881 22.9436 1.95383 22.9365 1.58706 22.9365C1.2344 22.9365 0.931106 22.9436 0.677188 22.9577C0.437377 22.9577 0.211673 22.9718 7.47177e-05 23V22.5768C0.282205 22.5063 0.571389 22.344 0.867627 22.0901C1.16386 21.8221 1.43189 21.3707 1.6717 20.7359L6.64425 7.91306C6.70068 7.91306 6.75711 7.91306 6.81353 7.91306C6.86996 7.91306 6.92638 7.91306 6.98281 7.91306ZM9.56431 16.906V17.3292H3.25868L3.47028 16.906H9.56431ZM17.4544 11.8699V24.8621C17.4544 25.4686 17.6308 25.8707 17.9834 26.0682C18.3502 26.2798 18.851 26.3856 19.4858 26.3856V26.8299C19.1754 26.8158 18.7452 26.7947 18.195 26.7664C17.6449 26.7523 17.0595 26.7453 16.4388 26.7453C16.0015 26.7453 15.5642 26.7523 15.1269 26.7664C14.7037 26.7947 14.3792 26.8158 14.1535 26.8299V26.3856C14.6613 26.3856 15.0211 26.2939 15.2327 26.1105C15.4443 25.9271 15.5501 25.5815 15.5501 25.0737V14.4091C15.5501 13.7743 15.4372 13.3088 15.2115 13.0126C14.9858 12.7022 14.5626 12.5471 13.9419 12.5471V12.1027C14.3933 12.145 14.8306 12.1662 15.2538 12.1662C15.6629 12.1662 16.0508 12.145 16.4176 12.1027C16.7985 12.0463 17.1441 11.9687 17.4544 11.8699ZM20.84 11.8065C21.5876 11.8065 22.2577 12.011 22.8502 12.4201C23.4427 12.8151 23.9082 13.4005 24.2467 14.1764C24.5994 14.9522 24.7757 15.9115 24.7757 17.0541C24.7757 17.8158 24.684 18.5705 24.5006 19.3182C24.3173 20.0517 24.0281 20.7218 23.6331 21.3284C23.2522 21.9208 22.7514 22.4005 22.1308 22.7672C21.5242 23.1199 20.7906 23.2962 19.9301 23.2962C19.2671 23.2962 18.6888 23.1411 18.195 22.8307C17.7154 22.5204 17.391 22.1466 17.2217 21.7093L17.4333 21.413C17.6308 21.808 17.9129 22.1395 18.2797 22.4075C18.6605 22.6755 19.1331 22.8096 19.6974 22.8096C20.4873 22.8096 21.101 22.5627 21.5383 22.069C21.9756 21.5752 22.2789 20.9193 22.4481 20.1011C22.6315 19.2688 22.7232 18.3519 22.7232 17.3503C22.7232 16.2218 22.6315 15.2978 22.4481 14.5784C22.2648 13.859 21.9897 13.3229 21.6229 12.9703C21.2561 12.6176 20.8047 12.4413 20.2687 12.4413C19.5775 12.4413 18.9497 12.7304 18.3855 13.3088C17.8212 13.8731 17.4615 14.7336 17.3063 15.8903L17.0524 15.5941C17.2076 14.395 17.6308 13.464 18.322 12.801C19.0273 12.138 19.8667 11.8065 20.84 11.8065ZM29.7494 11.8699V24.8621C29.7494 25.4686 29.9258 25.8707 30.2784 26.0682C30.6452 26.2798 31.146 26.3856 31.7808 26.3856V26.8299C31.4704 26.8158 31.0402 26.7947 30.49 26.7664C29.9399 26.7523 29.3545 26.7453 28.7338 26.7453C28.2965 26.7453 27.8592 26.7523 27.4219 26.7664C26.9987 26.7947 26.6742 26.8158 26.4485 26.8299V26.3856C26.9563 26.3856 27.3161 26.2939 27.5277 26.1105C27.7393 25.9271 27.8451 25.5815 27.8451 25.0737V14.4091C27.8451 13.7743 27.7322 13.3088 27.5065 13.0126C27.2808 12.7022 26.8576 12.5471 26.2369 12.5471V12.1027C26.6883 12.145 27.1256 12.1662 27.5488 12.1662C27.9579 12.1662 28.3458 12.145 28.7126 12.1027C29.0935 12.0463 29.4391 11.9687 29.7494 11.8699ZM33.135 11.8065C33.8827 11.8065 34.5527 12.011 35.1452 12.4201C35.7377 12.8151 36.2032 13.4005 36.5417 14.1764C36.8944 14.9522 37.0707 15.9115 37.0707 17.0541C37.0707 17.8158 36.979 18.5705 36.7957 19.3182C36.6123 20.0517 36.3231 20.7218 35.9281 21.3284C35.5472 21.9208 35.0464 22.4005 34.4258 22.7672C33.8192 23.1199 33.0856 23.2962 32.2251 23.2962C31.5621 23.2962 30.9838 23.1411 30.49 22.8307C30.0104 22.5204 29.686 22.1466 29.5167 21.7093L29.7283 21.413C29.9258 21.808 30.2079 22.1395 30.5747 22.4075C30.9555 22.6755 31.4281 22.8096 31.9924 22.8096C32.7823 22.8096 33.396 22.5627 33.8333 22.069C34.2706 21.5752 34.5739 20.9193 34.7432 20.1011C34.9265 19.2688 35.0182 18.3519 35.0182 17.3503C35.0182 16.2218 34.9265 15.2978 34.7432 14.5784C34.5598 13.859 34.2847 13.3229 33.9179 12.9703C33.5512 12.6176 33.0997 12.4413 32.5637 12.4413C31.8725 12.4413 31.2447 12.7304 30.6805 13.3088C30.1162 13.8731 29.7565 14.7336 29.6013 15.8903L29.3474 15.5941C29.5026 14.395 29.9258 13.464 30.617 12.801C31.3223 12.138 32.1617 11.8065 33.135 11.8065ZM42.0444 6.41071V21.0321C42.0444 21.6246 42.1643 22.0266 42.4042 22.2382C42.6581 22.4498 43.0742 22.5556 43.6526 22.5556V23C43.4128 22.9859 43.046 22.9718 42.5523 22.9577C42.0727 22.9295 41.586 22.9154 41.0923 22.9154C40.6126 22.9154 40.126 22.9295 39.6322 22.9577C39.1385 22.9718 38.7717 22.9859 38.5319 23V22.5556C39.1103 22.5556 39.5194 22.4498 39.7592 22.2382C40.0131 22.0266 40.1401 21.6246 40.1401 21.0321V8.94989C40.1401 8.31509 40.0272 7.84958 39.8015 7.55334C39.5758 7.243 39.1526 7.08783 38.5319 7.08783V6.64347C38.9833 6.68579 39.4206 6.70695 39.8438 6.70695C40.2529 6.70695 40.6408 6.68579 41.0076 6.64347C41.3885 6.58704 41.7341 6.50946 42.0444 6.41071ZM47.1468 6.81275C47.5135 6.81275 47.8309 6.94676 48.099 7.21478C48.367 7.48281 48.501 7.80021 48.501 8.16698C48.501 8.53375 48.367 8.85114 48.099 9.11917C47.8309 9.38719 47.5135 9.5212 47.1468 9.5212C46.78 9.5212 46.4626 9.38719 46.1946 9.11917C45.9266 8.85114 45.7925 8.53375 45.7925 8.16698C45.7925 7.80021 45.9266 7.48281 46.1946 7.21478C46.4626 6.94676 46.78 6.81275 47.1468 6.81275ZM48.2471 11.8699V21.0321C48.2471 21.6246 48.367 22.0266 48.6068 22.2382C48.8607 22.4498 49.2769 22.5556 49.8552 22.5556V23C49.6154 22.9859 49.2486 22.9718 48.7549 22.9577C48.2753 22.9295 47.7886 22.9154 47.2949 22.9154C46.8153 22.9154 46.3286 22.9295 45.8349 22.9577C45.3411 22.9718 44.9744 22.9859 44.7345 23V22.5556C45.3129 22.5556 45.722 22.4498 45.9618 22.2382C46.2157 22.0266 46.3427 21.6246 46.3427 21.0321V14.4091C46.3427 13.7743 46.2298 13.3088 46.0041 13.0126C45.7784 12.7022 45.3552 12.5471 44.7345 12.5471V12.1027C45.186 12.145 45.6233 12.1662 46.0465 12.1662C46.4555 12.1662 46.8435 12.145 47.2102 12.1027C47.5911 12.0463 47.9367 11.9687 48.2471 11.8699ZM56.2237 11.8065C56.6751 11.8065 57.1124 11.8629 57.5356 11.9757C57.9588 12.0886 58.3396 12.2579 58.6782 12.4836C59.0026 12.6952 59.2495 12.942 59.4188 13.2242C59.5881 13.4922 59.6727 13.7884 59.6727 14.1129C59.6727 14.4938 59.5669 14.79 59.3553 15.0016C59.1437 15.1991 58.8757 15.2978 58.5512 15.2978C58.2409 15.2978 57.9658 15.2061 57.726 15.0228C57.5003 14.8394 57.3875 14.5784 57.3875 14.2398C57.3875 13.9154 57.4721 13.6544 57.6414 13.4569C57.8248 13.2594 58.0364 13.1325 58.2762 13.0761C58.1351 12.8221 57.8812 12.6105 57.5144 12.4413C57.1617 12.272 56.7809 12.1873 56.3718 12.1873C56.0191 12.1873 55.6665 12.272 55.3138 12.4413C54.9611 12.6105 54.6367 12.8927 54.3404 13.2876C54.0442 13.6685 53.8044 14.1975 53.621 14.8746C53.4376 15.5376 53.3459 16.3699 53.3459 17.3715C53.3459 18.6129 53.487 19.6003 53.7691 20.3339C54.0513 21.0674 54.418 21.5964 54.8694 21.9208C55.335 22.2312 55.8428 22.3864 56.3929 22.3864C56.7597 22.3864 57.1335 22.3158 57.5144 22.1748C57.8953 22.0337 58.255 21.808 58.5936 21.4977C58.9321 21.1732 59.2213 20.743 59.4611 20.2069L59.8631 20.355C59.7221 20.8064 59.4893 21.2649 59.1649 21.7304C58.8404 22.1818 58.4172 22.5556 57.8953 22.8519C57.3733 23.1481 56.7315 23.2962 55.9697 23.2962C55.0951 23.2962 54.3052 23.0705 53.5998 22.6191C52.8945 22.1677 52.3303 21.5259 51.9071 20.6936C51.498 19.8472 51.2934 18.8456 51.2934 17.6889C51.2934 16.5322 51.498 15.5165 51.9071 14.6419C52.3303 13.7532 52.9157 13.0619 53.6633 12.5682C54.411 12.0604 55.2644 11.8065 56.2237 11.8065ZM64.229 23.1481C63.6506 23.1481 63.1499 23.0423 62.7267 22.8307C62.3035 22.605 61.979 22.2947 61.7533 21.8997C61.5417 21.5047 61.4359 21.0462 61.4359 20.5243C61.4359 19.9036 61.577 19.3958 61.8591 19.0008C62.1553 18.6058 62.5292 18.2884 62.9806 18.0486C63.432 17.8088 63.9046 17.6113 64.3983 17.4561C64.9061 17.2869 65.3857 17.1317 65.8372 16.9906C66.2886 16.8354 66.6553 16.6591 66.9375 16.4616C67.2337 16.2641 67.3818 16.0032 67.3818 15.6787V14.3668C67.3818 13.7743 67.2901 13.3229 67.1067 13.0126C66.9375 12.7022 66.7047 12.4977 66.4085 12.3989C66.1122 12.2861 65.7807 12.2297 65.414 12.2297C65.0613 12.2297 64.6804 12.279 64.2713 12.3778C63.8763 12.4765 63.5589 12.6811 63.3191 12.9914C63.5872 13.0478 63.8199 13.1889 64.0174 13.4146C64.2149 13.6403 64.3136 13.9295 64.3136 14.2822C64.3136 14.6348 64.2008 14.917 63.9751 15.1286C63.7494 15.326 63.4602 15.4248 63.1075 15.4248C62.6985 15.4248 62.3952 15.2978 62.1977 15.0439C62.0143 14.7759 61.9226 14.4797 61.9226 14.1552C61.9226 13.7884 62.0143 13.4922 62.1977 13.2665C62.3811 13.0408 62.6138 12.8292 62.8959 12.6317C63.2204 12.406 63.6365 12.2156 64.1444 12.0604C64.6663 11.8911 65.2517 11.8065 65.9006 11.8065C66.479 11.8065 66.9727 11.877 67.3818 12.0181C67.7909 12.145 68.1295 12.3355 68.3975 12.5894C68.7643 12.9279 69.0041 13.3441 69.1169 13.8378C69.2298 14.3174 69.2862 14.8958 69.2862 15.5729V21.4553C69.2862 21.808 69.3356 22.0619 69.4343 22.2171C69.5472 22.3723 69.7165 22.4498 69.9422 22.4498C70.0973 22.4498 70.2454 22.4146 70.3865 22.344C70.5276 22.2735 70.6969 22.1607 70.8943 22.0055L71.1271 22.3652C70.8309 22.5909 70.5487 22.7813 70.2807 22.9365C70.0127 23.0776 69.653 23.1481 69.2016 23.1481C68.7925 23.1481 68.4539 23.0776 68.1859 22.9365C67.9179 22.7955 67.7133 22.5909 67.5723 22.3229C67.4453 22.0408 67.3818 21.6881 67.3818 21.2649C67.0009 21.8997 66.5425 22.3723 66.0064 22.6826C65.4845 22.9929 64.892 23.1481 64.229 23.1481ZM64.9908 22.3017C65.4563 22.3017 65.8865 22.1677 66.2815 21.8997C66.6906 21.6317 67.0574 21.2296 67.3818 20.6936V16.5463C67.2125 16.7861 66.9657 16.9906 66.6412 17.1599C66.3168 17.3151 65.9641 17.4773 65.5832 17.6466C65.2024 17.8017 64.8356 17.9922 64.4829 18.2179C64.1444 18.4295 63.8622 18.7116 63.6365 19.0643C63.4108 19.4169 63.298 19.8754 63.298 20.4397C63.298 21.0039 63.4461 21.4553 63.7423 21.7939C64.0527 22.1324 64.4688 22.3017 64.9908 22.3017ZM78.0474 11.8065C79.2041 11.8065 80.1633 12.2861 80.9251 13.2453C81.6868 14.1905 82.0677 15.6293 82.0677 17.5619C82.0677 18.8315 81.8491 19.8966 81.4118 20.7571C80.9886 21.6035 80.4173 22.2382 79.6978 22.6614C78.9784 23.0846 78.1955 23.2962 77.3491 23.2962C76.6438 23.2962 75.9596 23.0987 75.2966 22.7038C74.6477 22.2947 74.161 21.6951 73.8366 20.9052L74.2598 21.1379C74.6124 21.7022 75.0497 22.1254 75.5717 22.4075C76.0936 22.6755 76.6297 22.8096 77.1798 22.8096C78.1249 22.8096 78.8303 22.3864 79.2958 21.54C79.7754 20.6795 80.0152 19.3535 80.0152 17.5619C80.0152 16.4193 79.9235 15.4671 79.7401 14.7054C79.5568 13.9436 79.2746 13.3793 78.8938 13.0126C78.5129 12.6317 78.0262 12.4413 77.4337 12.4413C76.7848 12.4413 76.1782 12.7375 75.614 13.33C75.0638 13.9083 74.7253 14.7618 74.5983 15.8903L74.3444 15.5941C74.4996 14.395 74.9157 13.464 75.5928 12.801C76.284 12.138 77.1022 11.8065 78.0474 11.8065ZM74.7464 6.43187V21.8997C74.563 22.0549 74.3726 22.2171 74.1751 22.3864C73.9917 22.5415 73.8083 22.6967 73.625 22.8519C73.4416 23.0071 73.2511 23.1693 73.0536 23.3386L72.6939 23.1904C72.7504 22.9929 72.7856 22.7955 72.7997 22.598C72.8279 22.3864 72.842 22.1748 72.842 21.9632V8.97105C72.842 8.33625 72.7292 7.87074 72.5035 7.5745C72.2778 7.26416 71.8546 7.10899 71.2339 7.10899V6.66463C71.6853 6.70695 72.1226 6.72811 72.5458 6.72811C72.9549 6.72811 73.3428 6.70695 73.7096 6.66463C74.0905 6.6082 74.4361 6.53062 74.7464 6.43187ZM86.8437 6.41071V21.0321C86.8437 21.6246 86.9636 22.0266 87.2034 22.2382C87.4574 22.4498 87.8735 22.5556 88.4519 22.5556V23C88.2121 22.9859 87.8453 22.9718 87.3516 22.9577C86.8719 22.9295 86.3853 22.9154 85.8915 22.9154C85.4119 22.9154 84.9252 22.9295 84.4315 22.9577C83.9378 22.9718 83.571 22.9859 83.3312 23V22.5556C83.9096 22.5556 84.3187 22.4498 84.5585 22.2382C84.8124 22.0266 84.9393 21.6246 84.9393 21.0321V8.94989C84.9393 8.31509 84.8265 7.84958 84.6008 7.55334C84.3751 7.243 83.9519 7.08783 83.3312 7.08783V6.64347C83.7826 6.68579 84.2199 6.70695 84.6431 6.70695C85.0522 6.70695 85.4401 6.68579 85.8069 6.64347C86.1878 6.58704 86.5334 6.50946 86.8437 6.41071ZM94.469 11.8065C95.7104 11.8065 96.6767 12.1873 97.3679 12.9491C98.0732 13.6967 98.4259 14.8676 98.4259 16.4616H90.9565L90.9353 16.0596H96.3946C96.4228 15.3684 96.3663 14.7336 96.2253 14.1552C96.0842 13.5627 95.8585 13.0902 95.5482 12.7375C95.2519 12.3848 94.864 12.2085 94.3844 12.2085C93.7355 12.2085 93.1571 12.5329 92.6493 13.1818C92.1555 13.8308 91.8593 14.8605 91.7606 16.2712L91.824 16.3558C91.7958 16.5674 91.7747 16.8002 91.7606 17.0541C91.7465 17.308 91.7394 17.5619 91.7394 17.8158C91.7394 18.7751 91.8946 19.6003 92.2049 20.2915C92.5153 20.9828 92.9173 21.5118 93.411 21.8785C93.9189 22.2312 94.4408 22.4075 94.9768 22.4075C95.4 22.4075 95.8021 22.344 96.183 22.2171C96.5638 22.076 96.9165 21.8503 97.2409 21.54C97.5654 21.2296 97.8475 20.8135 98.0873 20.2915L98.5105 20.4608C98.3554 20.9263 98.1014 21.3777 97.7488 21.8151C97.3961 22.2524 96.9518 22.6121 96.4157 22.8942C95.8797 23.1622 95.259 23.2962 94.5537 23.2962C93.538 23.2962 92.6634 23.0635 91.9298 22.598C91.2104 22.1324 90.6532 21.4906 90.2582 20.6724C89.8773 19.8401 89.6869 18.8879 89.6869 17.8158C89.6869 16.5745 89.8844 15.5094 90.2794 14.6207C90.6744 13.7179 91.2316 13.0267 91.951 12.5471C92.6704 12.0533 93.5098 11.8065 94.469 11.8065Z" fill="#727272"/>
</svg>
